<?xml version="1.0" encoding="UTF-8" standalone="no"?>
<svg
   xmlns:dc="http://purl.org/dc/elements/1.1/"
   xmlns:cc="http://creativecommons.org/ns#"
   xmlns:rdf="http://www.w3.org/1999/02/22-rdf-syntax-ns#"
   xmlns:svg="http://www.w3.org/2000/svg"
   xmlns="http://www.w3.org/2000/svg"
   viewBox="0 0 1052.5 745"
   height="745"
   width="1052.5"
   xml:space="preserve"
   version="1.1"
   id="svg4155"><metadata
     id="metadata4161"><rdf:RDF><cc:Work
         rdf:about=""><dc:format>image/svg+xml</dc:format><dc:type
           rdf:resource="http://purl.org/dc/dcmitype/StillImage" /><dc:title></dc:title></cc:Work></rdf:RDF></metadata><defs
     id="defs4159" /><g
     transform="matrix(1.25,0,0,-1.25,0,745)"
     id="g4163"><g
       transform="scale(0.1,0.1)"
       id="g4165"><path
         id="path4167"
         style="fill:#ffffff;fill-opacity:1;fill-rule:nonzero;stroke:none"
         d="m 4340.67,2433.77 182.26,0 0,-436.52 3.07,0 c 24.51,38.8 58.46,69.43 101.86,91.89 43.39,22.47 93.69,33.7 150.87,33.7 44.93,0 89.85,-8.16 134.78,-24.5 44.93,-16.34 85.01,-41.1 120.24,-74.29 35.23,-33.19 63.82,-74.54 85.77,-124.07 21.96,-49.52 32.93,-107.98 32.93,-175.37 0,-57.18 -9.95,-110.28 -29.86,-159.3 -19.91,-49.01 -48,-91.13 -84.25,-126.36 -36.25,-35.23 -79.39,-62.8 -129.42,-82.71 -50.04,-19.91 -104.67,-29.87 -163.89,-29.87 -60.25,0 -115.13,9.45 -164.65,28.34 -49.53,18.89 -91.9,45.95 -127.13,81.18 -35.23,35.23 -62.8,77.86 -82.71,127.9 -19.92,50.03 -29.87,105.68 -29.87,166.94 l 0,703.04 z m 404.36,-937.38 c 67.39,0 121.51,21.18 162.36,63.56 40.84,42.38 61.26,97.26 61.26,164.66 0,67.39 -20.42,122.28 -61.26,164.65 -40.85,42.38 -94.97,63.57 -162.36,63.57 -67.39,0 -121.26,-21.19 -161.59,-63.57 -40.34,-42.37 -60.51,-97.26 -60.51,-164.65 0,-67.4 20.17,-122.28 60.51,-164.66 40.33,-42.38 94.2,-63.56 161.59,-63.56 z m 1092.08,-39.82 -3.06,0 c -22.46,-37.79 -52.59,-67.4 -90.37,-88.84 -37.78,-21.44 -81.69,-32.17 -131.72,-32.17 -43.91,0 -86.28,7.4 -127.14,22.21 -40.84,14.8 -77.09,37.53 -108.75,68.16 -31.64,30.64 -56.92,70.2 -75.81,118.71 -18.89,48.5 -28.33,106.45 -28.33,173.84 l 0,384.45 182.27,0 0,-384.45 c 0,-72.5 17.35,-126.1 52.07,-160.82 34.72,-34.72 81.18,-52.08 139.38,-52.08 56.16,0 102.11,17.87 137.85,53.61 35.75,35.73 53.61,88.84 53.61,159.29 l 0,384.45 182.27,0 0,-730.61 c 0,-66.37 -9.7,-122.79 -29.1,-169.25 -19.4,-46.46 -46.21,-84.5 -80.41,-114.11 -34.21,-29.61 -74.29,-51.31 -120.24,-65.09 -45.95,-13.79 -94.97,-20.68 -147.04,-20.68 -43.91,0 -85.52,5.1 -124.83,15.31 -39.31,10.22 -75.05,26.04 -107.22,47.49 -32.16,21.44 -59.73,48.5 -82.71,81.18 -22.98,32.67 -39.57,71.47 -49.78,116.4 l 182.27,0 c 29.61,-68.41 90.37,-102.62 182.27,-102.62 62.29,0 110.28,16.09 143.98,48.25 33.7,32.16 50.54,85.01 50.54,158.53 l 0,88.84 z m 975.68,180.73 c 0,-52.07 -7.4,-97.77 -22.21,-137.09 -14.81,-39.3 -35.99,-71.73 -63.56,-97.26 -27.57,-25.52 -60.25,-44.67 -98.03,-57.43 -37.78,-12.77 -79.65,-19.15 -125.6,-19.15 -45.95,0 -87.82,6.38 -125.6,19.15 -37.78,12.76 -70.45,31.91 -98.02,57.43 -27.57,25.53 -48.76,57.96 -63.57,97.26 -14.8,39.32 -22.21,85.02 -22.21,137.09 l 0,718.36 182.27,0 0,-252.73 390.58,0 0,-165.41 -390.58,0 0,-300.22 c 0,-51.05 11.74,-87.3 35.23,-108.75 23.49,-21.44 54.12,-32.16 91.9,-32.16 37.78,0 68.42,10.46 91.9,31.4 23.49,20.93 35.23,57.44 35.23,109.51 l 0,19.91 182.27,0 0,-19.91 z m 277.23,22.98 0,-3.07 c 12.25,-51.05 37.02,-91.39 74.28,-121 37.28,-29.61 84.5,-44.42 141.69,-44.42 81.69,0 141.42,24 179.21,72 l 194.51,0 c -28.58,-72.5 -75.56,-130.2 -140.91,-173.09 -65.35,-42.88 -142.95,-64.33 -232.81,-64.33 -60.25,0 -115.13,9.96 -164.66,29.87 -49.52,19.91 -92.41,47.48 -128.66,82.71 -36.25,35.23 -64.33,77.35 -84.24,126.36 -19.91,49.02 -29.87,102.12 -29.87,159.3 0,57.18 9.96,110.28 29.87,159.29 19.91,49.02 47.99,91.14 84.24,126.37 36.25,35.23 79.14,62.79 128.66,82.71 49.53,19.91 104.41,29.86 164.66,29.86 59.22,0 113.85,-9.95 163.89,-29.86 50.03,-19.92 92.66,-47.48 127.89,-82.71 35.23,-35.23 62.8,-77.35 82.71,-126.37 19.91,-49.01 29.87,-102.11 29.87,-159.29 l 0,-64.33 -620.33,0 z m 215.97,297.14 c -54.12,0 -99.31,-13.27 -135.56,-39.83 -36.25,-26.54 -61.52,-62.79 -75.81,-108.74 l 0,-3.06 422.74,0 0,3.06 c -14.3,45.95 -39.82,82.2 -76.59,108.74 -36.75,26.56 -81.68,39.83 -134.78,39.83" /><path
         id="path4169"
         style="fill:#ffffff;fill-opacity:1;fill-rule:evenodd;stroke:none"
         d="m 2520.15,4949.57 c 1000.35,0 1811.6,-811.25 1811.6,-1811.6 0,-1000.34 -811.25,-1811.6 -1811.6,-1811.6 -1000.35,0 -1811.603,811.26 -1811.603,1811.6 0,1000.35 811.253,1811.6 1811.603,1811.6 z m 0,-197.97 c 891.03,0 1613.62,-722.6 1613.62,-1613.63 0,-891.03 -722.59,-1613.63 -1613.62,-1613.63 -891.03,0 -1613.63,722.6 -1613.63,1613.63 0,891.03 722.6,1613.63 1613.63,1613.63" /></g></g></svg>