<?xml version="1.0" ?><!DOCTYPE svg  PUBLIC '-//W3C//DTD SVG 1.1//EN'  'http://www.w3.org/Graphics/SVG/1.1/DTD/svg11.dtd'><svg enable-background="new 0 0 50 50" height="50px" id="Layer_1" version="1.1" viewBox="0 0 50 50" width="50px" xml:space="preserve" xmlns="http://www.w3.org/2000/svg" xmlns:xlink="http://www.w3.org/1999/xlink"><rect fill="none" height="50" width="50"/><path d="M15.494,46  C14.116,46,13,47.125,13,48.512C13,48.668,13,49,13,49h24c0,0,0-0.332,0-0.488C37,47.125,35.884,46,34.506,46  C34.35,46,15.65,46,15.494,46z" fill="none" stroke="#000000" stroke-linecap="round" stroke-miterlimit="10" stroke-width="2"/><path d="M23,3c0-1.104,0.896-2,2-2  s2,0.896,2,2v43h-4V3z" fill="none" stroke="#000000" stroke-linejoin="round" stroke-miterlimit="10" stroke-width="2"/><path d="M33,32  c1.167,2.911,4.304,5,8,5s6.833-2.089,8-5H33z" fill="none" stroke="#000000" stroke-linejoin="round" stroke-miterlimit="10" stroke-width="2"/><path d="  M22.803,4.796c-2.224-1.222-4.081-3.316-6.424-3.719C13.312,0.55,9.231,2.892,9.231,2.892" fill="none" stroke="#000000" stroke-linecap="round" stroke-linejoin="round" stroke-miterlimit="10" stroke-width="2"/><path d="  M40.768,8.314c0,0-3.062-3.571-6.131-4.099c-2.385-0.409-4.879,1-7.432,1.38" fill="none" stroke="#000000" stroke-linecap="round" stroke-linejoin="round" stroke-miterlimit="10" stroke-width="2"/><polyline fill="none" points="49,32 41,9 33,32   " stroke="#000000" stroke-linejoin="round" stroke-miterlimit="10" stroke-width="2"/><path d="M1,26  c1.167,2.911,4.304,5,8,5s6.833-2.089,8-5H1z" fill="none" stroke="#000000" stroke-linejoin="round" stroke-miterlimit="10" stroke-width="2"/><polyline fill="none" points="17,26 9,3 1,26   " stroke="#000000" stroke-linejoin="round" stroke-miterlimit="10" stroke-width="2"/></svg>